:SAMPLES-PER-SECOND 30
:FULLY-SPECIFIED
:DEGREES
129
root  -67.1038 40.7501 -2.2285 -165.825 -89.0378 162.318
RightUpLeg  -2.19751 -11.7866 0.611684
RightLeg  20.162 -2.10138 -0.37088
RightFoot  -11.6086 -0.0911994 -5.39009
RightToes  -1.74624e-010 0 -3.6325e-017
Spine  9.72241 2.77094 11.2665
Spine1  5.16264 5.36726 -7.68583
HEad  -15.6246 -3.13962 -3.86681
LeftShoulder1  7.93495 -12.0259 -44.4995
LeftArm  1.01751 40.5407 -19.2872
LeftForeArm  178.566 -61.5422 -162.564
LeftHand  -0.244104 0.0205437 5.32207
RightShoulder  5.76777 10.2844 35.8524
RightArm  22.465 4.47975 33.8556
RightForeArm  156.258 70.8219 150.278
RightHand  -0.356634 -12.24 4.66402
LeftUpLeg  -18.6801 8.34215 -1.30277
LeftLeg  10.1782 1.99361 -1.33533
LeftFoot  -3.4399 0.419983 -5.81892
LeftToes  -6.82154e-011 1.37952e-011 -1.79748e-011
130
root  -68.1965 40.3861 -2.11214 155.104 -87.7962 -159.056
RightUpLeg  -1.85382 -11.4101 1.23712
RightLeg  24.0283 -1.41044 -1.00587
RightFoot  -14.0454 -0.183394 -3.94125
RightToes  -1.74624e-010 0 -3.6325e-017
Spine  9.27261 2.87454 11.6967
Spine1  5.8403 5.65085 -8.03756
HEad  -14.2803 -1.91203 -3.92671
LeftShoulder1  7.59674 -11.4716 -44.1636
LeftArm  -1.70691 42.476 -19.7632
LeftForeArm  178.229 -61.4441 -162.608
LeftHand  -0.244104 0.0205437 5.32207
RightShoulder  5.90756 10.3093 36.7671
RightArm  25.3684 6.28248 34.0137
RightForeArm  154.188 73.2882 145.477
RightHand  -0.494275 -12.3637 6.8561
LeftUpLeg  -17.7911 8.16169 -0.466984
LeftLeg  9.06993 3.86292 -2.44409
LeftFoot  1.28296 0.209728 -2.20974
LeftToes  -6.82154e-011 1.37952e-011 -1.79748e-011
131
root  -69.1973 39.9716 -2.04843 159.361 -87.2398 -164.026
RightUpLeg  -2.77708 -9.57375 0.802088
RightLeg  30.7637 -1.9651 -1.49942
RightFoot  -15.8885 -0.134442 -0.760994
RightToes  -1.74624e-010 0 -3.6325e-017
Spine  9.62697 2.63668 9.83628
Spine1  6.28771 5.13162 -6.90707
HEad  -12.9257 -0.43824 -3.26473
LeftShoulder1  7.20072 -10.6421 -44.318
LeftArm  -4.74813 42.5805 -20.8261
LeftForeArm  178.22 -62.4575 -161.902
LeftHand  -0.244104 0.0205437 5.32207
RightShoulder  6.1243 10.3629 38.1135
RightArm  26.7219 6.77354 34.3229
RightForeArm  147.931 76.5729 135.49
RightHand  -0.420369 -10.9757 7.11489
LeftUpLeg  -18.0413 10.8603 -1.79473
LeftLeg  11.8334 2.05372 -1.9179
LeftFoot  6.32858 -0.623906 3.83296
LeftToes  -6.82154e-011 1.37952e-011 -1.79748e-011
132
root  -70.0571 39.6524 -2.04023 178.454 -87.4678 176.001
RightUpLeg  -5.24977 -8.72907 -1.09215
RightLeg  39.799 -0.800133 -0.947446
RightFoot  -14.2945 -0.00748099 4.36409
RightToes  -1.74624e-010 0 -3.6325e-017
Spine  10.837 2.3852 6.58313
Spine1  5.91392 4.32891 -5.25798
HEad  -14.4928 0.237007 -2.11139
LeftShoulder1  7.25813 -10.5909 -44.8514
LeftArm  -7.41255 40.9379 -21.7893
LeftForeArm  175.531 -66.2687 -158.333
LeftHand  -0.244104 0.0205437 5.32207
RightShoulder  6.53569 10.691 39.9052
RightArm  25.7242 5.03785 34.7256
RightForeArm  123.818 80.1241 107.797
RightHand  -0.260726 -9.57146 5.52915
LeftUpLeg  -18.8941 14.3298 -4.42425
LeftLeg  16.6123 -1.43741 -0.597742
LeftFoot  7.32965 -1.29403 7.64335
LeftToes  -6.82154e-011 1.37952e-011 -1.79748e-011
133
root  -70.7747 39.525 -2.01718 -158.628 -87.1824 152.319
RightUpLeg  -8.95655 -8.4438 -3.63681
RightLeg  48.8148 1.17457 1.09383
RightFoot  -7.87536 -0.354398 9.60663
RightToes  -1.74624e-010 0 -3.6325e-017
Spine  12.255 2.22702 4.48007
Spine1  5.26493 3.98477 -5.05754
HEad  -15.2555 0.348444 -1.23248
LeftShoulder1  7.6296 -11.1774 -45.2899
LeftArm  -9.16681 37.4552 -22.5279
LeftForeArm  163.165 -73.4772 -146.173
LeftHand  -0.244104 0.0205437 5.32207
RightShoulder  6.94572 10.9613 41.772
RightArm  21.8156 1.78371 36.0009
RightForeArm  75.464 78.7479 55.1127
RightHand  -0.165805 -8.93411 3.66894
LeftUpLeg  -18.8032 14.2283 -5.48158
LeftLeg  20.3823 -1.01302 -0.027627
LeftFoot  4.4627 -1.12058 7.82826
LeftToes  -6.82154e-011 1.37952e-011 -1.79748e-011
134
root  -71.4067 39.6194 -1.93733 -157.015 -86.1815 150.237
RightUpLeg  -12.7301 -7.96039 -5.48361
RightLeg  55.2145 1.99169 2.6222
RightFoot  -1.07667 -1.11996 12.5478
RightToes  -1.74624e-010 0 -3.6325e-017
Spine  13.1302 2.00678 4.27099
Spine1  5.11909 4.00338 -6.21744
HEad  -15.6468 0.37988 -1.51527
LeftShoulder1  7.76722 -11.378 -45.4927
LeftArm  -10.3892 32.8039 -23.5207
LeftForeArm  123.221 -80.2951 -105.415
LeftHand  -0.244104 0.0205437 5.32207
RightShoulder  7.08804 10.832 43.0943
RightArm  16.0133 -1.26089 37.97
RightForeArm  50.1077 70.159 25.9345
RightHand  -0.0696631 -7.8513 1.06795
LeftUpLeg  -17.3702 14.6798 -5.58491
LeftLeg  21.0947 -0.524118 0.129246
LeftFoot  1.95633 -0.820682 6.94497
LeftToes  -6.82154e-011 1.37952e-011 -1.79748e-011
135
root  -72.0387 39.9435 -1.82506 -169.881 -85.0856 162.945
RightUpLeg  -15.3942 -6.96611 -5.85552
RightLeg  57.8617 1.21221 1.62248
RightFoot  0.871529 -1.30025 12.1488
RightToes  -1.74624e-010 0 -3.6325e-017
Spine  13.5435 1.75739 5.11568
Spine1  4.3331 3.89254 -6.76625
HEad  -14.8071 0.764784 -2.73988
LeftShoulder1  7.79334 -11.3106 -45.8659
LeftArm  -11.71 29.3905 -24.7072
LeftForeArm  66.1963 -77.0327 -43.9849
LeftHand  -0.244104 0.0205437 5.32207
RightShoulder  7.03808 10.5901 43.5484
RightArm  10.6158 -4.1284 38.9657
RightForeArm  38.182 59.7302 15.6751
RightHand  -0.014897 -6.10968 -3.46683
LeftUpLeg  -14.871 15.414 -4.65829
LeftLeg  18.9923 -0.0909818 0.17243
LeftFoot  1.92667 -0.813002 6.87922
LeftToes  -6.82154e-011 1.37952e-011 -1.79748e-011
136
root  -72.6861 40.4157 -1.72076 176.22 -83.9305 177.063
RightUpLeg  -16.8589 -5.43839 -5.17453
RightLeg  56.7838 -0.57706 -1.36525
RightFoot  -1.0409 -0.908474 9.95012
RightToes  -1.74624e-010 0 -3.6325e-017
Spine  13.1948 1.42004 5.97821
Spine1  3.55285 3.36608 -5.84133
HEad  -13.831 1.99362 -3.91747
LeftShoulder1  7.74349 -11.0953 -46.2538
LeftArm  -13.4229 27.5023 -26.2014
LeftForeArm  49.3136 -67.3929 -21.7496
LeftHand  -0.244104 0.0205437 5.32207
RightShoulder  6.92859 10.4408 43.3182
RightArm  7.84305 -6.11635 38.2331
RightForeArm  25.4363 49.4182 11.1189
RightHand  -0.130417 -3.83579 -8.66625
LeftUpLeg  -11.997 14.2375 -2.65056
LeftLeg  15.6737 2.07001 -0.0422885
LeftFoot  2.72896 -0.869392 6.90226
LeftToes  -6.82154e-011 1.37952e-011 -1.79748e-011
137
root  -73.3029 40.8241 -1.66119 167.407 -82.6412 -173.57
RightUpLeg  -17.6364 -3.50749 -4.38595
RightLeg  52.7795 -2.71649 -4.2148
RightFoot  -3.07612 -0.592486 7.92427
RightToes  -1.74624e-010 0 -3.6325e-017
Spine  12.2455 1.11244 6.48835
Spine1  3.23551 2.75501 -4.67634
HEad  -13.2407 3.69461 -4.37809
LeftShoulder1  7.78173 -11.0601 -46.6029
LeftArm  -14.3964 26.2475 -27.1438
LeftForeArm  41.418 -56.4813 -13.2938
LeftHand  -0.244104 0.0205437 5.32207
RightShoulder  6.84153 10.4149 42.8256
RightArm  7.3614 -7.43255 36.0141
RightForeArm  14.327 40.0761 8.48087
RightHand  -0.410683 -1.29258 -11.7087
LeftUpLeg  -9.73938 11.8675 -0.475357
LeftLeg  12.9074 5.32887 -0.701401
LeftFoot  2.59777 -0.802598 6.42794
LeftToes  -6.82154e-011 1.37952e-011 -1.79748e-011
138
root  -73.8794 41.0959 -1.65691 163.286 -81.4879 -168.787
RightUpLeg  -17.5405 -1.93109 -3.9748
RightLeg  46.3683 -4.79034 -5.67625
RightFoot  -4.36127 -0.421013 6.39652
RightToes  -1.74624e-010 0 -3.6325e-017
Spine  11.3081 0.846528 6.75513
Spine1  3.07339 2.30459 -4.23334
HEad  -13.1308 5.10469 -4.07452
LeftShoulder1  7.84955 -11.1876 -46.6043
LeftArm  -13.246 25.1095 -26.9695
LeftForeArm  33.1462 -45.6178 -9.04365
LeftHand  -0.244104 0.0205437 5.32207
RightShoulder  6.73918 10.342 42.3814
RightArm  7.36714 -8.81129 32.8685
RightForeArm  8.27745 32.73 6.75846
RightHand  -0.635617 0.537527 -12.544
LeftUpLeg  -8.06058 9.60692 1.2755
LeftLeg  10.6824 8.42498 -1.69672
LeftFoot  2.28348 -0.755377 6.20145
LeftToes  -6.82154e-011 1.37952e-011 -1.79748e-011
139
root  -74.4275 41.2223 -1.7141 162.236 -80.9782 -167.27
RightUpLeg  -16.008 -1.73205 -4.12935
RightLeg  37.6714 -6.65286 -5.74184
RightFoot  -6.46355 -0.288734 5.80293
RightToes  -1.74624e-010 0 -3.6325e-017
Spine  10.7025 0.554756 6.24084
Spine1  2.95586 1.81721 -3.93053
HEad  -13.8393 5.98372 -3.38642
LeftShoulder1  7.68072 -11.1197 -45.7895
LeftArm  -10.3161 24.1649 -26.1756
LeftForeArm  27.5718 -36.4849 -6.59542
LeftHand  -0.244104 0.0205437 5.32207
RightShoulder  6.50602 10.0666 41.6937
RightArm  6.91096 -10.2995 29.4933
RightForeArm  5.28402 27.1456 5.52946
RightHand  -0.790602 1.74473 -13.0012
LeftUpLeg  -6.92709 7.73715 2.27149
LeftLeg  9.44798 10.7293 -2.59511
LeftFoot  2.09609 -0.770944 6.43023
LeftToes  -6.82154e-011 1.37952e-011 -1.79748e-011
140
root  -74.9557 41.2492 -1.83755 164.893 -81.3979 -169.704
RightUpLeg  -13.0362 -3.49514 -4.99468
RightLeg  26.7843 -7.18536 -4.22961
RightFoot  -7.87234 -0.24862 6.31366
RightToes  -1.74624e-010 0 -3.6325e-017
Spine  9.96977 0.240542 4.28148
Spine1  3.52957 1.08302 -2.84122
HEad  -15.4328 6.63435 -2.8986
LeftShoulder1  7.1264 -10.5445 -44.1475
LeftArm  -7.65718 23.2134 -25.2549
LeftForeArm  25.5945 -29.3957 -4.94231
LeftHand  -0.244104 0.0205437 5.32207
RightShoulder  6.02381 9.55743 39.9843
RightArm  5.08024 -11.3967 26.5024
RightForeArm  3.68734 22.0884 4.84169
RightHand  -0.906113 2.68106 -13.2129
LeftUpLeg  -6.20495 6.88311 2.1755
LeftLeg  9.23616 11.3552 -3.13754
LeftFoot  1.41805 -0.727229 6.41569
LeftToes  -6.82154e-011 1.37952e-011 -1.79748e-011
